# AST/ASF file generated using VICON BodyLanguage
# -----------------------------------------------
:version 1.10
:name VICON
:units
  mass 1.0
  length 0.45
  angle deg
:documentation
   .ast/.asf automatically generated from VICON data using
   VICON BodyBuilder and BodyLanguage model FoxedUp or BRILLIANT.MOD
:root
   order TX TY TZ RX RY RZ
   axis XYZ
   position 0 0 0  
   orientation 0 0 0 
:bonedata
  begin
     id 1 
     name lhipjoint
     direction 0.577973 -0.728611 0.367523 
     length 2.48544 
     axis 0 0 0  XYZ
  end
  begin
     id 2 
     name lfemur
     direction 0.34202 -0.939693 0  
     length 7.1921  
     axis 0 0 20  XYZ
    dof rx ry rz
    limits (-160.0 20.0)
           (-70.0 70.0)
           (-60.0 70.0)
  end
  begin
     id 3 
     name ltibia
     direction 0.34202 -0.939693 0   
     length 7.71059   
     axis 0 0 20   XYZ
    dof rx
    limits (-10.0 170.0)
  end
  begin
     id 4 
     name lfoot
     direction 0.089538 -0.246004 0.965124   
     length 2.19909   
     axis -90 7.62852e-016 20   XYZ
    dof rx rz
    limits (-45.0 90.0)
           (-70.0 20.0)
  end
  begin
     id 5 
     name ltoes
     direction 1.53544e-011 -4.21829e-011 1   
     length 1.10116   
     axis -90 7.62852e-016 20   XYZ
    dof rx
    limits (-90.0 20.0)
  end
  begin
     id 6 
     name rhipjoint
     direction -0.554414 -0.743062 0.374812   
     length 2.4371  
     axis 0 0 0  XYZ 
  end
  begin
     id 7 
     name rfemur
     direction -0.34202 -0.939693 0   
     length 7.47254   
     axis 0 0 -20   XYZ
    dof rx ry rz
    limits (-160.0 20.0)
           (-70.0 70.0)
           (-70.0 60.0)
  end
  begin
     id 8 
     name rtibia
     direction -0.34202 -0.939693 0   
     length 7.65855   
     axis 0 0 -20   XYZ
    dof rx
    limits (-10.0 170.0)
 end
 begin
     id 9 
     name rfoot
     direction -0.133779 -0.367555 0.92033   
     length 2.43006  
     axis -90 -7.62852e-016 -20   XYZ
    dof rx rz
    limits (-45.0 90.0)
           (-20.0 70.0)
  end
  begin
     id 10 
     name rtoes
     direction -1.53563e-011 -4.21889e-011 1   
     length 1.19625   
     axis -90 -7.62852e-016 -20   XYZ
    dof rx
    limits (-90.0 20.0)
  end
  begin
     id 11 
     name lowerback
     direction 0.0249066 0.998043 -0.0573585   
     length 2.08485   
     axis 0 0 0   XYZ
    dof rx ry rz
    limits (-20.0 45.0)
           (-30.0 30.0)
           (-30.0 30.0)
  end
  begin
     id 12 
     name upperback
     direction 0.0237884 0.999673 0.00943178   
     length 2.08515   
     axis 0 0 0   XYZ
    dof rx ry rz
    limits (-20.0 45.0)
           (-30.0 30.0)
           (-30.0 30.0)
  end
  begin
     id 13 
     name thorax
     direction 0.0106671 0.999301 0.0358174   
     length 2.09037   
     axis 0 0 0   XYZ
    dof rx ry rz
    limits (-20.0 45.0)
           (-30.0 30.0)
           (-30.0 30.0)
  end
  begin
     id 14 
     name lowerneck
     direction -0.0580016 0.987052 0.149546   
     length 1.84454   
     axis 0 0 0   XYZ
    dof rx ry rz
    limits (-20.0 45.0)
           (-30.0 30.0)
           (-30.0 30.0)
  end
  begin
     id 15 
     name upperneck
     direction 0.079456 0.981963 -0.171567   
     length 1.88141   
     axis 0 0 0   XYZ
    dof rx ry rz
    limits (-20.0 45.0)
           (-30.0 30.0)
           (-30.0 30.0)
  end
  begin
     id 16
     name head
     direction 0.0262167 0.9967 -0.0768276  
     length 1.89541  
     axis 0 0 0   XYZ
    dof rx ry rz
    limits (-20.0 45.0)
           (-30.0 30.0)
           (-30.0 30.0)
  end
  begin
     id 17 
     name lclavicle
     direction 0.946135 0.322134 -0.0325326  
     length 3.949  
     axis 0 0 0   XYZ
    dof ry rz
    limits (-20.0 10.0)
           (0.0 20.0)
  end
  begin
     id 18 
     name lhumerus
     direction 1 -4.48964e-011 1.94005e-028   
     length 5.10995   
     axis 180 -30 -90   XYZ
    dof rx ry rz
    limits (-60.0 90.0)
           (-90.0 90.0)
           (-90.0 90.0)
  end
  begin
     id 19
     name lradius
     direction 1 -4.48976e-011 2.87852e-027   
     length 3.21207   
     axis 180 -30 -90   XYZ
    dof rx
    limits (-10.0 170.0)
  end
  begin
     id 20
     name lwrist
     direction 1 -4.48963e-011 1.9975e-027   
     length 1.60604   
     axis 2.96054e-016 90 90   XYZ
    dof ry
    limits (-180.0 0.0)
 end
  begin
     id 21 
     name lhand
     direction 1 -4.48919e-011 4.00227e-027   
     length 0.63349   
     axis -2.5488e-015 90 90   XYZ
    dof rx rz
    limits (-90.0 90.0)
           (-45.0 45.0)
  end
  begin
     id 22 
     name lfingers
     direction 1 -4.49037e-011 7.9652e-027   
     length 0.510736   
     axis -5.0975e-015 90 90   XYZ
    dof rx
    limits (0.0 90.0)
  end
  begin
     id 23
     name lthumb
     direction 0.707107 -6.34922e-011 0.707107   
     length 0.733318   
     axis -90 45 -4.48553e-014   XYZ
    dof rx rz
    limits (-45.0 45.0)
           (-45.0 45.0)
  end
  begin
     id 24 
     name rclavicle
     direction -0.940085 0.328911 -0.0897654   
     length 3.93848  
     axis 0 0 0   XYZ 
    dof ry rz
    limits (-10.0 20.0)
           (-20.0 0.0)
  end
  begin
     id 25 
     name rhumerus
     direction -1 -4.48958e-011 3.02044e-027  
     length 5.25109   
     axis 180 30 90   XYZ
    dof rx ry rz
    limits (-90.0 60.0)
           (-90.0 90.0)
           (-90.0 90.0)
  end
  begin
     id 26 
     name rradius
     direction -1 -4.4897e-011 9.78352e-028   
     length 3.28364   
     axis 180 30 90   XYZ
    dof rx
    limits (-10.0 170.0)
  end
  begin
     id 27 
     name rwrist
     direction -1 -4.48943e-011 1.99918e-027   
     length 1.64182   
     axis 2.96054e-016 -90 -90   XYZ
    dof ry
    limits (-180.0 0.0)
  end
  begin
     id 28
     name rhand
     direction -1 -4.49024e-011 3.98478e-027   
     length 0.599745   
     axis -2.5488e-015 -90 -90   XYZ
    dof rx rz
    limits (-90.0 90.0)
           (-45.0 45.0)
  end
  begin
     id 29
     name rfingers
     direction -1 -4.48914e-011 8.00621e-027   
     length 0.48353   
     axis -5.0975e-015 -90 -90   XYZ
    dof rx
    limits (0.0 90.0)
  end
  begin
     id 30
     name rthumb
     direction -0.707107 -6.34992e-011 0.707107   
     length 0.694255   
     axis -90 -45 4.48553e-014   XYZ
    dof rx rz
    limits (-45.0 45.0)
           (-45.0 45.0)
  end
:hierarchy
  begin
    root lhipjoint rhipjoint lowerback
    lhipjoint lfemur
    lfemur ltibia
    ltibia lfoot
    lfoot ltoes
    rhipjoint rfemur
    rfemur rtibia
    rtibia rfoot
    rfoot rtoes
    lowerback upperback
    upperback thorax
    thorax lowerneck lclavicle rclavicle
    lowerneck upperneck
    upperneck head
    lclavicle lhumerus
    lhumerus lradius
    lradius lwrist
    lwrist lhand lthumb
    lhand lfingers
    rclavicle rhumerus
    rhumerus rradius
    rradius rwrist
    rwrist rhand rthumb
    rhand rfingers
  end

#!OML:ASF E:\CV Data\Top Level 1\Subject 1\Session 1\player.ASF
:FULLY-SPECIFIED
:DEGREES
346
root 3.68422 16.4387 -21.1899 12.2327 23.6177 0.721982
lowerback 21.1621 -0.877191 6.6001
upperback 2.60509 0.84674 4.18089
thorax -8.97895 0.276941 0.578323
lowerneck -11.5056 -9.27831 -13.4995
upperneck -21.934 -8.96132 17.8206
head -3.03188 -4.16958 7.74757
rclavicle -2.70347e-014 1.11319e-014
rhumerus -19.2283 11.5689 -90.6996
rradius 84.9423
rwrist -42.3266
rhand -24.6217 2.8764
rfingers 7.12502
rthumb 1.87693 -27.0951
lclavicle -2.70347e-014 1.11319e-014
lhumerus -16.8804 -29.1902 103.726
lradius 78.908
lwrist 40.1934
lhand -29.5181 27.5574
lfingers 7.12502
lthumb -2.85212 57.5181
rfemur -51.7546 -0.790671 15.8683
rtibia 77.8696
rfoot -17.8819 -19.699
rtoes 2.70713
lfemur -46.0565 5.63031 -20.7698
ltibia 52.9566
lfoot -15.3132 -1.81667
ltoes -3.79559
347
root 3.68876 16.376 -21.0366 11.7653 24.1837 0.975636
lowerback 20.9355 -0.986955 6.47926
upperback 2.58875 0.632093 3.95801
thorax -8.87971 0.177134 0.460006
lowerneck -11.5278 -9.3164 -13.6342
upperneck -21.896 -9.00479 17.7552
head -3.01016 -4.17192 7.74279
rclavicle 2.54444e-014 6.20208e-014
rhumerus -17.2178 12.1365 -90.5692
rradius 84.99
rwrist -42.8379
rhand -24.8548 2.49813
rfingers 7.12502
rthumb 1.65176 -27.4752
lclavicle 2.54444e-014 6.20208e-014
lhumerus -14.9584 -28.4349 102.066
lradius 78.9767
lwrist 42.0354
lhand -28.2933 26.7103
lfingers 7.12502
lthumb -1.66921 56.6836
rfemur -52.2736 0.434552 14.2251
rtibia 75.7187
rfoot -17.9895 -19.8535
rtoes 2.67332
lfemur -45.5359 5.60844 -20.773
ltibia 54.0772
lfoot -16.33 -1.83741
ltoes -4.50695
348
root 3.69185 16.3123 -20.8794 11.212 24.7575 1.17932
lowerback 20.7301 -1.07247 6.35631
upperback 2.58456 0.455929 3.78343
thorax -8.77833 0.0967255 0.384671
lowerneck -11.5108 -9.3575 -13.7913
upperneck -21.8489 -9.06494 17.6219
head -2.99419 -4.17969 7.71978
rclavicle -5.96354e-014 1.43125e-014
rhumerus -15.1794 12.9698 -90.2015
rradius 85.2462
rwrist -43.1775
rhand -25.3603 2.33404
rfingers 7.12502
rthumb 1.16361 -27.6425
lclavicle -5.96354e-014 1.43125e-014
lhumerus -12.7676 -28.5156 100.295
lradius 79.1425
lwrist 44.1759
lhand -28.0137 26.3606
lfingers 7.12502
lthumb -1.39919 56.3357
rfemur -52.5531 1.80195 12.4878
rtibia 73.3154
rfoot -17.8017 -19.601
rtoes 2.14084
lfemur -44.9216 5.62803 -20.7016
ltibia 55.1939
lfoot -17.3723 -1.86958
ltoes -5.17615
349
root 3.69298 16.2467 -20.717 10.5879 25.3274 1.32817
lowerback 20.5383 -1.13075 6.20493
upperback 2.56908 0.31678 3.65817
thorax -8.69637 0.0350415 0.36921
lowerneck -11.4304 -9.38854 -13.9663
upperneck -21.776 -9.12651 17.4433
head -2.98292 -4.18773 7.68628
rclavicle 5.1684e-014 -2.38542e-014
rhumerus -13.0621 14.0354 -89.5767
rradius 85.6432
rwrist -43.0915
rhand -26.2254 2.33024
rfingers 7.12502
rthumb 0.32803 -27.6493
lclavicle 5.1684e-014 -2.38542e-014
lhumerus -10.235 -29.1833 98.3682
lradius 79.2932
lwrist 46.1883
lhand -28.4397 26.3002
lfingers 7.12502
lthumb -1.81056 56.2723
rfemur -52.6347 3.33787 10.6697
rtibia 70.7662
rfoot -17.3489 -18.94
rtoes 1.09652
lfemur -44.2373 5.70809 -20.5491
ltibia 56.3207
lfoot -18.4503 -1.91746
ltoes -5.82953
350
root 3.69309 16.1763 -20.5508 9.91698 25.8585 1.41277
lowerback 20.3104 -1.14569 6.01633
upperback 2.55109 0.228178 3.58106
thorax -8.596 -0.000440543 0.412754
lowerneck -11.3017 -9.40975 -14.1383
upperneck -21.6648 -9.18935 17.2315
head -2.97022 -4.1976 7.64151
rclavicle -1.98785e-014 -3.97569e-014
rhumerus -10.7815 15.1669 -88.6795
rradius 86.1219
rwrist -42.4432
rhand -27.2944 2.5161
rfingers 7.12502
rthumb -0.704422 -27.4625
lclavicle -1.98785e-014 -3.97569e-014
lhumerus -7.31243 -30.1083 96.2381
lradius 79.387
lwrist 47.6708
lhand -29.0389 26.478
lfingers 7.12502
lthumb -2.38933 56.4443
rfemur -52.6036 5.04256 8.79091
rtibia 68.1931
rfoot -16.6534 -17.9124
rtoes -0.436904
lfemur -43.5361 5.86393 -20.3165
ltibia 57.4844
lfoot -19.5565 -1.94678
ltoes -6.63242
351
root 3.69274 16.0995 -20.3813 9.20472 26.3384 1.4319
lowerback 20.02 -1.11204 5.78133
upperback 2.53346 0.192791 3.5515
thorax -8.45947 -0.00790487 0.5188
lowerneck -11.1051 -9.41896 -14.3107
upperneck -21.5058 -9.25057 17.0159
head -2.95373 -4.20993 7.59607
rclavicle 4.13472e-014 5.24792e-014
rhumerus -8.26885 16.1791 -87.5167
rradius 86.6286
rwrist -41.2901
rhand -28.338 2.66246
rfingers 7.12502
rthumb -1.7124 -27.3104
lclavicle 4.13472e-014 5.24792e-014
lhumerus -4.01295 -30.9856 93.917
lradius 79.3813
lwrist 48.3485
lhand -29.2883 26.6565
lfingers 7.12502
lthumb -2.63013 56.62
rfemur -52.508 6.89886 6.87691
rtibia 65.7143
rfoot -15.7519 -16.6027
rtoes -2.19666
lfemur -42.8336 6.0844 -20.0009
ltibia 58.6975
lfoot -20.6875 -1.94187
ltoes -7.53882
352
root 3.69237 16.016 -20.2089 8.43971 26.7884 1.3915
lowerback 19.6972 -1.04831 5.52504
upperback 2.50825 0.194306 3.55363
thorax -8.31242 0.00315375 0.661146
lowerneck -10.863 -9.42507 -14.4802
upperneck -21.2576 -9.32063 16.8195
head -2.91417 -4.23062 7.55308
rclavicle 5.48646e-014 -3.18055e-014
rhumerus -5.51161 16.9425 -86.1506
rradius 87.133
rwrist -39.7644
rhand -29.2531 2.67106
rfingers 7.12502
rthumb -2.59611 -27.2929
lclavicle 5.48646e-014 -3.18055e-014
lhumerus -0.409052 -31.6116 91.4475
lradius 79.2887
lwrist 48.1861
lhand -29.1283 26.9171
lfingers 7.12502
lthumb -2.47566 56.8824
rfemur -52.357 8.84369 4.9734
rtibia 63.446
rfoot -14.6549 -15.1233
rtoes -4.01843
lfemur -42.1174 6.33375 -19.6016
ltibia 59.9632
lfoot -21.8387 -1.9065
ltoes -8.50349
353
root 3.69125 15.9265 -20.0328 7.57686 27.2663 1.30027
lowerback 19.4029 -0.981739 5.27048
upperback 2.4715 0.206534 3.57311
thorax -8.19318 0.0187501 0.819304
lowerneck -10.5455 -9.43232 -14.6503
upperneck -20.9176 -9.40726 16.6642
head -2.85219 -4.26572 7.52077
rclavicle -7.15625e-015 1.27222e-014
rhumerus -2.50578 17.4217 -84.6499
rradius 87.6009
rwrist -38.2178
rhand -30.0088 2.64382
rfingers 7.12502
rthumb -3.32599 -27.31
lclavicle -7.15625e-015 1.27222e-014
lhumerus 3.41238 -31.9394 88.887
lradius 79.1469
lwrist 47.4052
lhand -28.562 27.1692
lfingers 7.12502
lthumb -1.92869 57.1402
rfemur -52.0901 10.8045 3.15562
rtibia 61.5005
rfoot -13.4567 -13.5588
rtoes -5.64875
lfemur -41.3237 6.5501 -19.1071
ltibia 61.2622
lfoot -23.0061 -1.8476
ltoes -9.52502
354
root 3.68861 15.8307 -19.8528 6.59788 27.8214 1.16522
lowerback 19.1793 -0.941016 5.05507
upperback 2.41486 0.200866 3.58402
thorax -8.13432 0.0232246 0.952165
lowerneck -10.1317 -9.44129 -14.8166
upperneck -20.4905 -9.51256 16.5687
head -2.77076 -4.31828 7.50546
rclavicle -3.57812e-015 -5.08889e-014
rhumerus 0.717681 17.6375 -83.09
rradius 88.0413
rwrist -36.9332
rhand -30.697 2.5893
rfingers 7.12502
rthumb -3.9905 -27.3531
lclavicle -3.57812e-015 -5.08889e-014
lhumerus 7.39709 -32.0016 86.2553
lradius 78.9785
lwrist 46.3643
lhand -27.7827 27.3506
lfingers 7.12502
lthumb -1.17608 57.3271
rfemur -51.6609 12.6864 1.52555
rtibia 59.9959
rfoot -12.3252 -12.0435
rtoes -7.46101
lfemur -40.4326 6.68677 -18.517
ltibia 62.5809
lfoot -24.1633 -1.76845
ltoes -10.6481
355
root 3.68243 15.7322 -19.6668 5.47527 28.5588 0.989308
lowerback 19.0518 -0.965978 4.88974
upperback 2.33964 0.128318 3.58185
thorax -8.14896 -0.0070723 1.06154
lowerneck -9.61035 -9.45204 -14.9792
upperneck -19.9915 -9.63805 16.5304
head -2.6766 -4.38928 7.50768
rclavicle 6.75868e-015 3.33958e-014
rhumerus 4.1255 17.6276 -81.5179
rradius 88.477
rwrist -36.1516
rhand -31.3909 2.58264
rfingers 7.12502
rthumb -4.6606 -27.3461
lclavicle 6.75868e-015 3.33958e-014
lhumerus 11.5158 -31.8573 83.5651
lradius 78.7994
lwrist 45.4476
lhand -27.1649 27.4689
lfingers 7.12502
lthumb -0.579378 57.4479
rfemur -51.0061 14.4187 0.168983
rtibia 59.0365
rfoot -11.5193 -10.6438
rtoes -9.51499
lfemur -39.3992 6.65141 -17.8148
ltibia 63.891
lfoot -25.3129 -1.69242
ltoes -11.8163
356
root 3.67154 15.6304 -19.4742 4.24664 29.5075 0.754271
lowerback 19.0016 -1.07215 4.80703
upperback 2.21972 -0.0278708 3.54652
thorax -8.25544 -0.0820376 1.11195
lowerneck -8.98999 -9.46209 -15.1241
upperneck -19.4077 -9.78224 16.5436
head -2.5664 -4.47835 7.52273
rclavicle 3.57812e-015 -1.59028e-014
rhumerus 7.64623 17.4202 -79.9976
rradius 88.9368
rwrist -35.9244
rhand -32.1494 2.59245
rfingers 7.12502
rthumb -5.39295 -27.3189
lclavicle 3.57812e-015 -1.59028e-014
lhumerus 15.7206 -31.5569 80.8088
lradius 78.6127
lwrist 44.9306
lhand -26.6587 27.514
lfingers 7.12502
lthumb -0.0904588 57.4937
rfemur -50.1483 15.9076 -0.814551
rtibia 58.7102
rfoot -11.2324 -9.35857
rtoes -12.1333
lfemur -38.292 6.42686 -16.997
ltibia 65.1842
lfoot -26.4536 -1.63745
ltoes -12.9953
357
root 3.65619 15.525 -19.2763 2.97404 30.6385 0.439362
lowerback 18.9543 -1.22083 4.79773
upperback 2.02641 -0.223605 3.48494
thorax -8.44478 -0.180598 1.1046
lowerneck -8.16022 -9.46556 -15.225
upperneck -18.8025 -9.95567 16.5572
head -2.48087 -4.59401 7.53778
rclavicle 1.98785e-015 6.36111e-015
rhumerus 11.1684 16.9606 -78.5309
rradius 89.4443
rwrist -36.1927
rhand -32.9114 2.60447
rfingers 7.12502
rthumb -6.12869 -27.2869
lclavicle 1.98785e-015 6.36111e-015
lhumerus 19.9631 -31.169 78.0739
lradius 78.3902
lwrist 44.9679
lhand -26.137 27.4499
lfingers 7.12502
lthumb 0.413453 57.4292
rfemur -49.1721 17.0838 -1.37348
rtibia 59.0399
rfoot -11.5578 -8.16569
rtoes -15.3125
lfemur -37.2091 6.03547 -16.075
ltibia 66.4502
lfoot -27.5814 -1.58144
ltoes -14.1839
358
root 3.63664 15.4186 -19.0732 1.70518 31.9519 0.02774
lowerback 18.8357 -1.40144 4.82348
upperback 1.78055 -0.456103 3.43827
thorax -8.6541 -0.298506 1.1035
lowerneck -7.23188 -9.47426 -15.3069
upperneck -18.1698 -10.1606 16.5258
head -2.40444 -4.72929 7.53815
rclavicle -3.73715e-014 -3.18055e-014
rhumerus 14.7013 16.2676 -77.0589
rradius 89.9716
rwrist -36.7299
rhand -33.6428 2.48214
rfingers 7.12502
rthumb -6.83471 -27.3875
lclavicle -3.73715e-014 -3.18055e-014
lhumerus 24.2576 -30.6346 75.4383
lradius 78.1096
lwrist 45.6147
lhand -25.6371 27.3551
lfingers 7.12502
lthumb 0.896257 57.333
rfemur -48.1286 17.8771 -1.47564
rtibia 59.9721
rfoot -12.5112 -7.09747
rtoes -18.5516
lfemur -36.2158 5.48147 -15.0537
ltibia 67.6663
lfoot -28.706 -1.54051
ltoes -15.3014
359
root 3.61409 15.3137 -18.8663 0.469933 33.3985 -0.497867
lowerback 18.5867 -1.59014 4.86913
upperback 1.51049 -0.701178 3.42926
thorax -8.81882 -0.422287 1.13304
lowerneck -6.26327 -9.4946 -15.3796
upperneck -17.5457 -10.3948 16.4264
head -2.34095 -4.87862 7.51803
rclavicle -1.33186e-014 -1.59028e-015
rhumerus 18.2578 15.3378 -75.5393
rradius 90.494
rwrist -37.3802
rhand -34.2722 2.25929
rfingers 7.12502
rthumb -7.44236 -27.5898
lclavicle -1.33186e-014 -1.59028e-015
lhumerus 28.5962 -29.9088 72.9713
lradius 77.7544
lwrist 46.8251
lhand -25.0037 27.2263
lfingers 7.12502
lthumb 1.50804 57.2007
rfemur -47.0757 18.2593 -1.11516
rtibia 61.3691
rfoot -13.9313 -6.22608
rtoes -21.2374
lfemur -35.3506 4.79445 -13.9369
ltibia 68.8
lfoot -29.8291 -1.52431
ltoes -16.2819
